<svg width="98" height="98" viewBox="0 0 98 98" fill="none" xmlns="http://www.w3.org/2000/svg">
<path d="M29.8064 2C29.2773 2 28.7696 2.20973 28.3948 2.58326L2.58832 28.2975C2.2117 28.6728 2 29.1826 2 29.7143V68.2857C2 68.8174 2.2117 69.3272 2.58832 69.7025L28.3948 95.4167C28.7696 95.7903 29.2773 96 29.8064 96H68.1936C68.7227 96 69.2304 95.7903 69.6052 95.4167L95.4117 69.7025C95.7883 69.3272 96 68.8174 96 68.2857V31.3214C96 30.7898 95.7883 30.28 95.4117 29.9047L67.9923 2.58326C67.6175 2.20973 67.1098 2 66.5806 2H29.8064Z" stroke="#153E7A" stroke-width="4" stroke-linecap="round" stroke-linejoin="round"/>
</svg>
