<svg width="46" height="33" viewBox="0 0 46 33" fill="none" xmlns="http://www.w3.org/2000/svg">
<path d="M45.88 5.63987C42.76 6.43988 40.36 7.63988 38.68 9.23988C37.08 10.7599 36.36 12.5999 36.52 14.7599C37.56 16.0399 38.84 17.0799 40.36 17.8799C41.96 18.5999 43.64 19.2399 45.4 19.7999C45.8 21.2399 45.84 22.7199 45.52 24.2399C45.28 25.6799 44.76 27.0399 43.96 28.3199C43.16 29.5199 42.2 30.5599 41.08 31.4399C40.04 32.3199 38.96 32.8399 37.84 32.9999C36.16 32.9199 34.52 32.5999 32.92 32.0399C31.32 31.3999 29.92 30.5199 28.72 29.3999C27.52 28.2799 26.52 26.9599 25.72 25.4399C25 23.8399 24.64 22.0399 24.64 20.0399C24.64 17.6399 25.12 15.3599 26.08 13.1999C27.04 10.9599 28.36 8.95988 30.04 7.19987C31.8 5.43987 33.88 3.95987 36.28 2.75987C38.68 1.47988 41.32 0.599876 44.2 0.119873L45.88 5.63987ZM21.28 5.63987C18.16 6.43988 15.76 7.63988 14.08 9.23988C12.48 10.7599 11.76 12.5999 11.92 14.7599C12.96 16.0399 14.24 17.0799 15.76 17.8799C17.36 18.5999 19.04 19.2399 20.8 19.7999C21.2 21.2399 21.24 22.7199 20.92 24.2399C20.68 25.6799 20.16 27.0399 19.36 28.3199C18.56 29.5199 17.6 30.5599 16.48 31.4399C15.44 32.3199 14.36 32.8399 13.24 32.9999C11.56 32.9199 9.92004 32.5999 8.32004 32.0399C6.72004 31.3999 5.32004 30.5199 4.12004 29.3999C2.92004 28.2799 1.92004 26.9599 1.12004 25.4399C0.40004 23.8399 0.0400391 22.0399 0.0400391 20.0399C0.0400391 17.6399 0.520039 15.3599 1.48004 13.1999C2.44004 10.9599 3.76004 8.95988 5.44004 7.19987C7.20004 5.43987 9.28004 3.95987 11.68 2.75987C14.08 1.47988 16.72 0.599876 19.6 0.119873L21.28 5.63987Z" fill="#153E7A"/>
</svg>
